<svg version="1.1" viewBox="0.0 0.0 960.0 540.0" fill="none" stroke="none" stroke-linecap="square" stroke-miterlimit="10" xmlns:xlink="http://www.w3.org/1999/xlink" xmlns="http://www.w3.org/2000/svg"><clipPath id="g2db6eb5fa19_0_35.0"><path d="m0 0l960.0 0l0 540.0l-960.0 0l0 -540.0z" clip-rule="nonzero"/></clipPath><g clip-path="url(#g2db6eb5fa19_0_35.0)"><path fill="#ffffff" d="m0 0l960.0 0l0 540.0l-960.0 0z" fill-rule="evenodd"/><path fill="#4285f4" d="m480.0 7.0l280.50378 152.33856l0 223.32288l-280.50378 152.33856l-280.50378 -152.33856l0 -223.32288z" fill-rule="evenodd"/><path stroke="#3d85c6" stroke-width="8.0" stroke-linejoin="round" stroke-linecap="butt" d="m480.0 7.0l280.50378 152.33856l0 223.32288l-280.50378 152.33856l-280.50378 -152.33856l0 -223.32288z" fill-rule="evenodd"/><g mask="url(#mask-g2db6eb5fa19_0_35.1)"><use xlink:href="#g2db6eb5fa19_0_35.1" transform="matrix(1.0 0.0 0.0 -1.0 0.0 438.13359422508347)"/></g><defs><mask id="mask-g2db6eb5fa19_0_35.1" maskUnits="userSpaceOnUse" x="105.23433333333334" y="76.5935923881323" width="754.4606276751468" height="348.57467112828976"><linearGradient gradientUnits="userSpaceOnUse" id="gradient-g2db6eb5fa19_0_35.1" x1="237.96701207987866" y1="221.06503250990687" x2="237.96697664317293" y2="230.8542045786845"><stop offset="0%" stop-color="#ffffff" stop-opacity="1.0"/><stop offset="100%" stop-color="#ffffff" stop-opacity="0.0"/></linearGradient><rect fill="url(#gradient-g2db6eb5fa19_0_35.1)" x="105.23433333333334" y="76.5935923881323" width="754.4606276751468" height="348.57467112828976"/></mask></defs><g id="g2db6eb5fa19_0_35.1"><g filter="url(#shadowFilter-g2db6eb5fa19_0_35.2)"><use xlink:href="#g2db6eb5fa19_0_35.2" transform="matrix(1.0 0.0 0.0 1.0 0.7673212598425365 10.973204724409442)"/></g><defs><filter id="shadowFilter-g2db6eb5fa19_0_35.2" filterUnits="userSpaceOnUse"><feGaussianBlur in="SourceAlpha" stdDeviation="44.5" result="blur"/><feComponentTransfer in="blur" color-interpolation-filters="sRGB"><feFuncR type="linear" slope="0" intercept="0.0"/><feFuncG type="linear" slope="0" intercept="0.0"/><feFuncB type="linear" slope="0" intercept="0.0"/><feFuncA type="linear" slope="0.5" intercept="0"/></feComponentTransfer></filter></defs><g id="g2db6eb5fa19_0_35.2"><path fill="#eeeeee" d="m255.32318 154.00099c-3.221283 0 -6.0726624 0.48431396 -8.554184 1.4529419c-2.4815063 0.9601288 -4.4250336 2.4980469 -5.830551 4.6137238c-1.4055328 2.1156921 -2.1082916 4.923874 -2.1082916 8.42453c0 2.3960876 0.33961487 4.3928223 1.0188446 5.990219c0.6859436 1.5888824 1.6072693 2.8549042 2.7639618 3.7980347c1.1566925 0.9346466 2.427719 1.6908569 3.8130646 2.268631c1.3853607 0.56929016 2.7807922 1.062088 4.18631 1.4784393c0.98857117 0.31437683 1.9266968 0.59051514 2.814392 0.8284302c0.8877106 0.23791504 1.6812439 0.5395355 2.3806458 0.9049072c0.7061157 0.36535645 1.2542114 0.82418823 1.6442566 1.3764801c0.39678955 0.54377747 0.5951538 1.2830048 0.5951538 2.2176514c0 0.9941101 -0.1647644 1.8055573 -0.4942627 2.434311c-0.3295288 0.6202545 -0.8473511 1.062088 -1.553482 1.3255005c-0.69940186 0.26339722 -1.6274567 0.39509583 -2.7841492 0.39509583c-1.116333 0 -2.1284485 -0.07647705 -3.036316 -0.2294159c-0.77656555 -0.13809204 -1.4793243 -0.32279968 -2.1082916 -0.5541382l0 0l0 -6.188034l-9.6032715 0l0 10.4127655c0.5783539 0.36535645 1.5265808 0.8369293 2.8446655 1.4147186c1.3248291 0.5692749 2.9892578 1.062088 4.9933014 1.4784241c2.0040436 0.4248352 4.243454 0.6372528 6.7182617 0.6372528c4.0955048 0 7.49498 -0.5352936 10.198441 -1.6058807c2.710144 -1.0705872 4.714203 -2.752945 6.0121155 -5.0470734c1.304657 -2.3026123 1.9569702 -5.3062134 1.9569702 -9.010803c0 -2.2941132 -0.37322998 -4.222885 -1.11969 -5.7862854c-0.7464905 -1.5718994 -1.7384338 -2.8549042 -2.97583 -3.8490143c-1.2373657 -0.99412537 -2.5891113 -1.7885742 -4.0551453 -2.3833466c-1.4660645 -0.6032715 -2.9220276 -1.1385651 -4.3678894 -1.6058807c-1.116333 -0.3653717 -2.1418762 -0.67974854 -3.0766754 -0.94314575c-0.92803955 -0.26339722 -1.7451324 -0.54803467 -2.4512482 -0.8539276c-0.69940186 -0.31437683 -1.2340393 -0.7179718 -1.6039124 -1.2107849c-0.36987305 -0.501297 -0.5548096 -1.1682892 -0.5548096 -2.0009766c0 -1.206543 0.359787 -2.0434723 1.079361 -2.510788c0.7263031 -0.46733093 1.83255 -0.70098877 3.3187714 -0.70098877c0.9482422 0 1.7922058 0.06373596 2.531952 0.19117737c0.6267395 0.10700989 1.2084656 0.2529602 1.7451477 0.4378357l0 0l0 4.9278717l9.421692 0l0 -9.393158c-0.37661743 -0.26341248 -1.1432495 -0.64151 -2.2999573 -1.1343231c-1.1566772 -0.50131226 -2.686615 -0.9601288 -4.5897827 -1.3764648c-1.8964539 -0.41635132 -4.18631 -0.6245117 -6.869568 -0.6245117z" fill-rule="evenodd"/><path fill="#eeeeee" d="m294.49524 154.2304c-4.1762085 0 -7.743805 0.8369293 -10.70282 2.510788c-2.95224 1.6738586 -5.2253113 4.142166 -6.8191223 7.4049225c-1.5870972 3.2627563 -2.3806458 7.294464 -2.3806458 12.095123c0 4.9026184 0.83724976 9.002304 2.5117798 12.299042c1.67453 3.2882385 3.9778442 5.756546 6.909912 7.4049225c2.9320984 1.6398621 6.321472 2.4598083 10.168182 2.4598083c2.6025696 0 4.8722534 -0.48431396 6.8090515 -1.4529419c1.943512 -0.9686279 3.5877686 -2.3408508 4.93277 -4.116684c1.3450012 -1.7758179 2.4310913 -3.8617706 3.2582397 -6.2578583l-4.710846 -3.6068573c-0.5379944 1.2575073 -1.1701355 2.4598083 -1.8964539 3.6068573c-0.719574 1.1470642 -1.5568237 2.0732117 -2.5117798 2.7784424c-0.94821167 0.7052307 -2.0208435 1.0578461 -3.2178955 1.0578461c-1.3248291 0 -2.4512634 -0.25915527 -3.379303 -0.77745056c-0.92803955 -0.52679443 -1.6913147 -1.3509827 -2.289856 -2.4725494c-0.59851074 -1.121582 -1.0423584 -2.583023 -1.331543 -4.384323c-0.28915405 -1.8013153 -0.43374634 -3.9807281 -0.43374634 -6.538254c0 -3.3392181 0.19500732 -6.066681 0.5850525 -8.182373c0.39004517 -2.1156921 1.0188293 -3.6705933 1.8863525 -4.6647186c0.8742676 -0.9941101 2.0107727 -1.4911652 3.4095764 -1.4911652c0.9145813 0 1.6476135 0.16992188 2.1990662 0.50979614c0.053894043 0.032821655 0.10769653 0.06674194 0.16140747 0.10177612l0 0l0 8.794327l10.470795 0l0 -13.701019c-0.5379944 -0.4248352 -1.4156189 -0.8963928 -2.632843 -1.4147034c-1.2171936 -0.5182953 -2.7471313 -0.97288513 -4.5897827 -1.3637238c-1.8359375 -0.39935303 -3.9710999 -0.59902954 -6.405548 -0.59902954z" fill-rule="evenodd"/><path fill="#eeeeee" d="m321.88254 135.99213c-2.3940735 0 -4.263611 0.6669922 -5.608612 2.0009766c-1.3450317 1.3255005 -2.017517 3.2670135 -2.017517 5.824524c0 2.5575256 0.67248535 4.5032806 2.017517 5.837265c1.3449707 1.3339996 3.214508 2.0009918 5.608612 2.0009918c2.441162 0 4.320801 -0.6669922 5.638916 -2.0009918c1.3247986 -1.3339844 1.9872131 -3.2797394 1.9872131 -5.837265c0 -2.5575104 -0.66241455 -4.4990234 -1.9872131 -5.824524c-1.3181152 -1.3339844 -3.197754 -2.0009766 -5.638916 -2.0009766zm-9.542755 19.028473l0 6.971573l0.4942932 0.1529541c0.7464905 0.20391846 1.2844849 0.4375763 1.6140137 0.7009735c0.3294983 0.26339722 0.4942627 0.7094879 0.4942627 1.3382416l0 23.565735c0 1.4104614 -0.21853638 2.366333 -0.65567017 2.8676453c-0.4303894 0.4928131 -1.0390015 0.7392273 -1.8258362 0.7392273l-0.12106323 0l0 6.181381l19.650421 0l0 -6.181381l-0.13113403 0c-0.7397461 0 -1.3382874 -0.24641418 -1.7955933 -0.7392273c-0.45056152 -0.50131226 -0.6758423 -1.4571838 -0.6758423 -2.8676453l0 -32.729477z" fill-rule="evenodd"/><path fill="#eeeeee" d="m354.1782 161.44414c0.7397461 0 1.3887024 0.18267822 1.9468689 0.54803467c0.5581665 0.3653717 0.99194336 1.0323639 1.3013 2.0009918c0.30932617 0.9601288 0.54470825 2.353592 0.7061157 4.1804047c0.11816406 1.2842102 0.20645142 2.8518677 0.26483154 4.702942l-9.010834 0c0.045928955 -1.504364 0.12332153 -2.8213654 0.23217773 -3.9509888c0.18829346 -1.962738 0.48754883 -3.492157 0.8977661 -4.5882416c0.41696167 -1.0960846 0.9246826 -1.8522949 1.5232239 -2.268631c0.59851074 -0.41633606 1.3113708 -0.6245117 2.1385498 -0.6245117zm-0.31271362 -7.290207c-3.7592773 0 -7.054535 0.92614746 -9.885742 2.7784271c-2.8312073 1.8522949 -5.0235596 4.452301 -6.5770264 7.8000183c-1.5467529 3.3392334 -2.3201294 7.277466 -2.3201294 11.814728c0 4.758194 0.77337646 8.768646 2.3201294 12.031403c1.5534668 3.2627563 3.8265076 5.7310486 6.8191223 7.4049225c2.9993591 1.6653595 6.6073 2.4980316 10.823883 2.4980316c2.7639465 0 5.147949 -0.37809753 7.152008 -1.1343079c2.0040588 -0.7562103 3.7088318 -1.9032745 5.1143494 -3.4411926c1.4055176 -1.546402 2.5622253 -3.4411774 3.4700928 -5.684311l-4.952942 -4.0784454c-0.6187134 1.2575226 -1.3214722 2.3705902 -2.108307 3.3392181c-0.7868042 0.96014404 -1.6980286 1.703598 -2.7337036 2.2303925c-1.0289001 0.51831055 -2.286499 0.7774658 -3.772705 0.7774658c-1.486206 0 -2.7471619 -0.24641418 -3.7828064 -0.7392273c-1.0356445 -0.50131226 -1.8527222 -1.300003 -2.4512634 -2.3960724c-0.59851074 -1.0960846 -1.0221863 -2.5447845 -1.2709961 -4.3461c-0.15750122 -1.1400452 -0.26513672 -2.431549 -0.322937 -3.8745117l22.081604 0c-0.04034424 -4.1719055 -0.42367554 -7.8085175 -1.1499634 -10.909821c-0.719574 -3.1098175 -1.7922058 -5.7098236 -3.217926 -7.8000183c-1.4256897 -2.09021 -3.2347107 -3.6578522 -5.4270325 -4.702957c-2.1923523 -1.0450897 -4.794922 -1.5676422 -7.8077087 -1.5676422z" fill-rule="evenodd"/><path fill="#eeeeee" d="m403.81595 154.15393c-1.9367981 0 -3.7962646 0.5225525 -5.578369 1.5676422c-1.7753906 1.045105 -3.3356018 2.4555664 -4.6805725 4.2313843c-0.8626404 1.1446686 -1.6107178 2.3970184 -2.2442322 3.7570343l0 0l-0.69122314 -8.689392l-15.7465515 0l0 6.971573l0.4942932 0.1529541c0.49761963 0.15293884 0.90112305 0.31011963 1.2104797 0.47155762c0.3093567 0.1529541 0.53463745 0.33563232 0.6758728 0.5480499c0.14794922 0.20391846 0.22192383 0.5437927 0.22192383 1.0196075l0 23.565735c0 0.9431305 -0.10424805 1.6738586 -0.31271362 2.192154c-0.20175171 0.51831055 -0.48083496 0.883667 -0.8372803 1.0960846c-0.34970093 0.2124176 -0.7935486 0.31863403 -1.331543 0.31863403l-0.121032715 0l0 6.181381l19.216614 0l0 -6.181381l-0.25216675 0c-0.24884033 0 -0.51782227 -0.012756348 -0.80700684 -0.038238525c-0.28918457 -0.033981323 -0.5480957 -0.10195923 -0.7767334 -0.20391846c-0.22192383 -0.10197449 -0.33288574 -0.20393372 -0.33288574 -0.30589294l0 -21.102707l0 0c0.24963379 -0.49343872 0.4951172 -0.9490814 0.73638916 -1.3669434c0.7868347 -1.3594818 1.5736389 -2.4045868 2.3604736 -3.1352997c0.7868042 -0.7307129 1.570282 -1.0960846 2.3503723 -1.0960846c0.61868286 0 1.1029053 0.15719604 1.4526062 0.47157288c0.3564148 0.3058777 0.6153259 0.7349701 0.7767334 1.287262c0.16812134 0.5437927 0.25216675 1.2362671 0.25216675 2.0774536l0 22.775528c0 0.16143799 -0.10421753 0.2931366 -0.31271362 0.39511108c-0.20172119 0.10195923 -0.46063232 0.16993713 -0.7767334 0.20391846c-0.30932617 0.025482178 -0.60861206 0.038238525 -0.8977661 0.038238525l-0.12106323 0l0 6.181381l19.156128 0l0 -6.181381l-0.19168091 0c-0.49090576 0 -0.9145813 -0.10621643 -1.2710266 -0.31863403c-0.3496704 -0.2124176 -0.61868286 -0.57777405 -0.8069763 -1.0960846c-0.18157959 -0.5182953 -0.27236938 -1.2490234 -0.27236938 -2.192154l0 -20.124557c0 -2.922882 -0.41357422 -5.3741913 -1.2407532 -7.3539276c-0.82717896 -1.9882507 -2.027588 -3.5049133 -3.6012268 -4.5500183c-1.566925 -1.0450897 -3.4667358 -1.5676422 -5.6994324 -1.5676422z" fill-rule="evenodd"/><path fill="#eeeeee" d="m423.46173 143.11665l0 8.220596c0 1.1980438 -0.18493652 2.0859528 -0.5548096 2.663742c-0.36987305 0.57777405 -0.8776245 0.9601288 -1.5232239 1.147049c-0.6388855 0.17843628 -1.3920593 0.26765442 -2.2595825 0.26765442l-0.3732605 0l0 6.958832l4.2770996 0l0 22.316711c0 3.5006561 0.59854126 6.2578583 1.7955627 8.271591c1.2037964 2.0052338 2.8581238 3.4156952 4.963043 4.2313843c2.1049194 0.80718994 4.5628967 1.2107849 7.373932 1.2107849c1.3651733 0 2.6261292 -0.080718994 3.7828064 -0.24215698c1.1567078 -0.15293884 2.1688232 -0.3483734 3.0363464 -0.5862732c0.8675232 -0.23791504 1.5299377 -0.43333435 1.9872131 -0.58628845l0 -7.9147186c-0.24880981 0 -0.7565613 0.09347534 -1.5231934 0.2803955c-0.7666626 0.17843628 -1.6039124 0.26765442 -2.5117798 0.26765442c-0.9482422 0 -1.7417908 -0.1529541 -2.3806458 -0.4588318c-0.6388855 -0.31437683 -1.1365356 -0.90065 -1.4929504 -1.7588196c-0.34970093 -0.8666687 -0.52453613 -2.1072083 -0.52453613 -3.7215881l0 -21.309845l8.735748 0l0 -7.3539276l-8.735748 0l0 -11.903946z" fill-rule="evenodd"/><path fill="#eeeeee" d="m458.8526 135.99213c-2.394104 0 -4.2636414 0.6669922 -5.6086426 2.0009766c-1.3450012 1.3255005 -2.0174866 3.2670135 -2.0174866 5.824524c0 2.5575256 0.67248535 4.5032806 2.0174866 5.837265c1.3450012 1.3339996 3.2145386 2.0009918 5.6086426 2.0009918c2.441162 0 4.320801 -0.6669922 5.6388855 -2.0009918c1.3248291 -1.3339844 1.9872437 -3.2797394 1.9872437 -5.837265c0 -2.5575104 -0.66241455 -4.4990234 -1.9872437 -5.824524c-1.3180847 -1.3339844 -3.1977234 -2.0009766 -5.6388855 -2.0009766zm-9.542755 19.028473l0 6.971573l0.4942932 0.1529541c0.74645996 0.20391846 1.2844543 0.4375763 1.6139832 0.7009735c0.3295288 0.26339722 0.4942932 0.7094879 0.4942932 1.3382416l0 23.565735c0 1.4104614 -0.2185669 2.366333 -0.6557007 2.8676453c-0.4303894 0.4928131 -1.0390015 0.7392273 -1.8258362 0.7392273l-0.121032715 0l0 6.181381l19.65039 0l0 -6.181381l-0.13113403 0c-0.7397461 0 -1.3382874 -0.24641418 -1.7955627 -0.7392273c-0.45059204 -0.50131226 -0.6758728 -1.4571838 -0.6758728 -2.8676453l0 -32.729477z" fill-rule="evenodd"/><path fill="#eeeeee" d="m489.03995 154.00099c-3.221283 0 -6.0726624 0.48431396 -8.554169 1.4529419c-2.4815369 0.9601288 -4.425049 2.4980469 -5.8305664 4.6137238c-1.4055176 2.1156921 -2.1082764 4.923874 -2.1082764 8.42453c0 2.3960876 0.3395996 4.3928223 1.0188293 5.990219c0.6859436 1.5888824 1.6072693 2.8549042 2.7639465 3.7980347c1.1567078 0.9346466 2.4277344 1.6908569 3.8130798 2.268631c1.3853455 0.56929016 2.7807922 1.062088 4.18631 1.4784393c0.9885559 0.31437683 1.9266968 0.59051514 2.814392 0.8284302c0.8876953 0.23791504 1.6812439 0.5395355 2.3806458 0.9049072c0.7061157 0.36535645 1.2542114 0.82418823 1.6442566 1.3764801c0.39678955 0.54377747 0.5951538 1.2830048 0.5951538 2.2176514c0 0.9941101 -0.1647644 1.8055573 -0.4942627 2.434311c-0.3295288 0.6202545 -0.8473511 1.062088 -1.5534973 1.3255005c-0.69937134 0.26339722 -1.6274414 0.39509583 -2.7841187 0.39509583c-1.1163635 0 -2.128479 -0.07647705 -3.0363464 -0.2294159c-0.7765503 -0.13809204 -1.4793091 -0.32279968 -2.1082764 -0.5541382l0 0l0 -6.188034l-9.6032715 0l0 10.4127655c0.5783386 0.36535645 1.5265808 0.8369293 2.8446655 1.4147186c1.3248291 0.5692749 2.9892578 1.062088 4.993286 1.4784241c2.0040588 0.4248352 4.243469 0.6372528 6.7182617 0.6372528c4.09552 0 7.494995 -0.5352936 10.198456 -1.6058807c2.710144 -1.0705872 4.714203 -2.752945 6.0121155 -5.0470734c1.304657 -2.3026123 1.9569702 -5.3062134 1.9569702 -9.010803c0 -2.2941132 -0.37322998 -4.222885 -1.1197205 -5.7862854c-0.74645996 -1.5718994 -1.7384033 -2.8549042 -2.9757996 -3.8490143c-1.2373962 -0.99412537 -2.5891113 -1.7885742 -4.0551453 -2.3833466c-1.4660645 -0.6032715 -2.9220276 -1.1385651 -4.3678894 -1.6058807c-1.116333 -0.3653717 -2.1419067 -0.67974854 -3.0766602 -0.94314575c-0.92807007 -0.26339722 -1.7451477 -0.54803467 -2.4512634 -0.8539276c-0.69940186 -0.31437683 -1.2340393 -0.7179718 -1.6039124 -1.2107849c-0.36987305 -0.501297 -0.5548096 -1.1682892 -0.5548096 -2.0009766c0 -1.206543 0.35977173 -2.0434723 1.0793457 -2.510788c0.72631836 -0.46733093 1.8325806 -0.70098877 3.3187866 -0.70098877c0.94821167 0 1.7922058 0.06373596 2.531952 0.19117737c0.6267395 0.10700989 1.2084656 0.2529602 1.7451477 0.4378357l0 0l0 4.9278717l9.421692 0l0 -9.393158c-0.3765869 -0.26341248 -1.1432495 -0.64151 -2.2999573 -1.1343231c-1.1566772 -0.50131226 -2.686615 -0.9601288 -4.5897827 -1.3764648c-1.8964539 -0.41635132 -4.18631 -0.6245117 -6.869568 -0.6245117z" fill-rule="evenodd"/><path fill="#eeeeee" d="m511.46964 143.11665l0 8.220596c0 1.1980438 -0.18493652 2.0859528 -0.5548096 2.663742c-0.36987305 0.57777405 -0.8776245 0.9601288 -1.5232239 1.147049c-0.638855 0.17843628 -1.3920593 0.26765442 -2.2595825 0.26765442l-0.37322998 0l0 6.958832l4.277069 0l0 22.316711c0 3.5006561 0.59854126 6.2578583 1.7955627 8.271591c1.2037964 2.0052338 2.8581543 3.4156952 4.9630737 4.2313843c2.1049194 0.80718994 4.562866 1.2107849 7.3739014 1.2107849c1.3651733 0 2.6261597 -0.080718994 3.782837 -0.24215698c1.1566772 -0.15293884 2.1688232 -0.3483734 3.036316 -0.5862732c0.8675537 -0.23791504 1.5299072 -0.43333435 1.9872437 -0.58628845l0 -7.9147186c-0.24884033 0 -0.7565918 0.09347534 -1.5231934 0.2803955c-0.7666626 0.17843628 -1.6039429 0.26765442 -2.5117798 0.26765442c-0.9482422 0 -1.7418213 -0.1529541 -2.3806763 -0.4588318c-0.638855 -0.31437683 -1.1365356 -0.90065 -1.4929199 -1.7588196c-0.34973145 -0.8666687 -0.52453613 -2.1072083 -0.52453613 -3.7215881l0 -21.309845l8.735718 0l0 -7.3539276l-8.735718 0l0 -11.903946z" fill-rule="evenodd"/><path fill="#eeeeee" d="m555.0459 154.00099c-3.2212524 0 -6.072632 0.48431396 -8.554199 1.4529419c-2.4815063 0.9601288 -4.424988 2.4980469 -5.8305664 4.6137238c-1.4055176 2.1156921 -2.1082764 4.923874 -2.1082764 8.42453c0 2.3960876 0.33966064 4.3928223 1.0188599 5.990219c0.6859741 1.5888824 1.6072998 2.8549042 2.763977 3.7980347c1.1566772 0.9346466 2.4277344 1.6908569 3.8130493 2.268631c1.385376 0.56929016 2.7807617 1.062088 4.1862793 1.4784393c0.9885864 0.31437683 1.9267578 0.59051514 2.8144531 0.8284302c0.8876953 0.23791504 1.6812134 0.5395355 2.3806152 0.9049072c0.7061157 0.36535645 1.2542114 0.82418823 1.6442871 1.3764801c0.39672852 0.54377747 0.5951538 1.2830048 0.5951538 2.2176514c0 0.9941101 -0.16479492 1.8055573 -0.49432373 2.434311c-0.3295288 0.6202545 -0.8473511 1.062088 -1.5534668 1.3255005c-0.69940186 0.26339722 -1.6274414 0.39509583 -2.7841187 0.39509583c-1.116333 0 -2.128479 -0.07647705 -3.036316 -0.2294159c-0.7766113 -0.13809204 -1.4793701 -0.32279968 -2.1082764 -0.5541382l0 0l0 -6.188034l-9.6032715 0l0 10.4127655c0.5783081 0.36535645 1.5265503 0.8369293 2.8446655 1.4147186c1.3247681 0.5692749 2.9892578 1.062088 4.993286 1.4784241c2.0040283 0.4248352 4.243469 0.6372528 6.7182617 0.6372528c4.09552 0 7.494995 -0.5352936 10.198425 -1.6058807c2.710144 -1.0705872 4.7142334 -2.752945 6.012146 -5.0470734c1.3046265 -2.3026123 1.9569702 -5.3062134 1.9569702 -9.010803c0 -2.2941132 -0.37322998 -4.222885 -1.119751 -5.7862854c-0.74645996 -1.5718994 -1.7384033 -2.8549042 -2.975769 -3.8490143c-1.2374268 -0.99412537 -2.5891113 -1.7885742 -4.055176 -2.3833466c-1.4660645 -0.6032715 -2.921997 -1.1385651 -4.367859 -1.6058807c-1.116394 -0.3653717 -2.1419067 -0.67974854 -3.0767212 -0.94314575c-0.92803955 -0.26339722 -1.7451172 -0.54803467 -2.451233 -0.8539276c-0.69940186 -0.31437683 -1.2340088 -0.7179718 -1.6038818 -1.2107849c-0.36987305 -0.501297 -0.5548096 -1.1682892 -0.5548096 -2.0009766c0 -1.206543 0.3597412 -2.0434723 1.0793457 -2.510788c0.7262573 -0.46733093 1.8325195 -0.70098877 3.3187866 -0.70098877c0.94818115 0 1.7921753 0.06373596 2.5319214 0.19117737c0.62677 0.10700989 1.2084961 0.2529602 1.7451172 0.4378357l0 0l0 4.9278717l9.421753 0l0 -9.393158c-0.37664795 -0.26341248 -1.1432495 -0.64151 -2.2999878 -1.1343231c-1.1566772 -0.50131226 -2.6865845 -0.9601288 -4.5897827 -1.3764648c-1.8964233 -0.41635132 -4.1862793 -0.6245117 -6.869568 -0.6245117z" fill-rule="evenodd"/><path fill="#eeeeee" d="m574.19434 138.18428l0 6.729431l0.4942627 0.16567993c0.45733643 0.1529541 0.850708 0.3101349 1.1802368 0.47157288c0.3295288 0.15293884 0.5648804 0.3483734 0.7061157 0.5862732c0.14794922 0.2294159 0.22192383 0.55229187 0.22192383 0.9686432l0 40.644196c0 0.9431305 -0.10418701 1.6738586 -0.3126831 2.192154c-0.20178223 0.51831055 -0.48083496 0.883667 -0.8372803 1.0960846c-0.3496704 0.2124176 -0.79351807 0.31863403 -1.331543 0.31863403l-0.121032715 0l0 6.181381l19.216614 0l0 -6.181381l-0.25219727 0c-0.2487793 0 -0.51782227 -0.012756348 -0.80700684 -0.038238525c-0.28912354 -0.033981323 -0.54803467 -0.10195923 -0.7767334 -0.20391846c-0.22192383 -0.10197449 -0.33288574 -0.20393372 -0.33288574 -0.30589294l0 -21.12703l0 0c0.24969482 -0.5007019 0.4951172 -0.9652405 0.73638916 -1.3936005c0.78686523 -1.384964 1.5736694 -2.425827 2.3604736 -3.1225586c0.78686523 -0.7052307 1.5703125 -1.0578461 2.3504028 -1.0578461c0.6187134 0 1.1029053 0.15719604 1.4525757 0.47157288c0.3564453 0.3058777 0.61535645 0.7349701 0.7767334 1.287262c0.16815186 0.5437927 0.25219727 1.2362671 0.25219727 2.0774536l0 22.775528c0 0.16143799 -0.10424805 0.2931366 -0.3126831 0.39511108c-0.20178223 0.10195923 -0.46069336 0.16993713 -0.7767334 0.20391846c-0.3093872 0.025482178 -0.6086426 0.038238525 -0.89782715 0.038238525l-0.121032715 0l0 6.181381l19.156128 0l0 -6.181381l-0.19165039 0c-0.4909668 0 -0.9146118 -0.10621643 -1.2710571 -0.31863403c-0.3496704 -0.2124176 -0.6187134 -0.57777405 -0.80700684 -1.0960846c-0.18157959 -0.5182953 -0.27233887 -1.2490234 -0.27233887 -2.192154l0 -20.124557c0 -2.922882 -0.41357422 -5.3741913 -1.2407837 -7.3539276c-0.82714844 -1.9882507 -2.027588 -3.5049133 -3.6011963 -4.5500183c-1.5669556 -1.0450897 -3.4667358 -1.5676422 -5.699463 -1.5676422c-1.9367676 0 -3.7962036 0.5225525 -5.578369 1.5676422c-1.7753906 1.045105 -3.3355713 2.4555664 -4.680542 4.2313843c-0.6002197 0.796402 -1.1448975 1.6449432 -1.6342163 2.5455933l0 0l0 -24.31427z" fill-rule="evenodd"/><path fill="#eeeeee" d="m628.6087 135.99213c-2.394104 0 -4.263611 0.6669922 -5.6086426 2.0009766c-1.3449707 1.3255005 -2.017456 3.2670135 -2.017456 5.824524c0 2.5575256 0.67248535 4.5032806 2.017456 5.837265c1.3450317 1.3339996 3.2145386 2.0009918 5.6086426 2.0009918c2.441162 0 4.320801 -0.6669922 5.638916 -2.0009918c1.3248291 -1.3339844 1.9872437 -3.2797394 1.9872437 -5.837265c0 -2.5575104 -0.66241455 -4.4990234 -1.9872437 -5.824524c-1.3181152 -1.3339844 -3.197754 -2.0009766 -5.638916 -2.0009766zm-9.542725 19.028473l0 6.971573l0.4942627 0.1529541c0.74645996 0.20391846 1.2844849 0.4375763 1.6140137 0.7009735c0.3295288 0.26339722 0.4942627 0.7094879 0.4942627 1.3382416l0 23.565735c0 1.4104614 -0.2185669 2.366333 -0.6557007 2.8676453c-0.4303589 0.4928131 -1.0390015 0.7392273 -1.8258057 0.7392273l-0.121032715 0l0 6.181381l19.65039 0l0 -6.181381l-0.13116455 0c-0.7397461 0 -1.3382568 -0.24641418 -1.7955322 -0.7392273c-0.45062256 -0.50131226 -0.6759033 -1.4571838 -0.6759033 -2.8676453l0 -32.729477z" fill-rule="evenodd"/><path fill="#eeeeee" d="m670.62866 154.15393c-1.9367676 0 -3.7962646 0.5225525 -5.578369 1.5676422c-1.7753906 1.045105 -3.3355713 2.4555664 -4.680603 4.2313843c-0.86260986 1.1446686 -1.6106567 2.3970184 -2.2442017 3.7570343l0 0l-0.69122314 -8.689392l-15.746582 0l0 6.971573l0.49432373 0.1529541c0.49761963 0.15293884 0.90112305 0.31011963 1.2105103 0.47155762c0.30932617 0.1529541 0.53460693 0.33563232 0.6758423 0.5480499c0.14794922 0.20391846 0.22192383 0.5437927 0.22192383 1.0196075l0 23.565735c0 0.9431305 -0.10424805 1.6738586 -0.31274414 2.192154c-0.20172119 0.51831055 -0.48083496 0.883667 -0.83721924 1.0960846c-0.34973145 0.2124176 -0.7935791 0.31863403 -1.331543 0.31863403l-0.12109375 0l0 6.181381l19.216675 0l0 -6.181381l-0.25219727 0c-0.24884033 0 -0.51782227 -0.012756348 -0.80700684 -0.038238525c-0.28918457 -0.033981323 -0.5480957 -0.10195923 -0.7767334 -0.20391846c-0.22192383 -0.10197449 -0.33288574 -0.20393372 -0.33288574 -0.30589294l0 -21.102707l0 0c0.24963379 -0.49343872 0.4951172 -0.9490814 0.73638916 -1.3669434c0.7868042 -1.3594818 1.5736694 -2.4045868 2.3604736 -3.1352997c0.7868042 -0.7307129 1.5702515 -1.0960846 2.3504028 -1.0960846c0.61865234 0 1.1029053 0.15719604 1.4525757 0.47157288c0.3564453 0.3058777 0.61535645 0.7349701 0.7767334 1.287262c0.16809082 0.5437927 0.25219727 1.2362671 0.25219727 2.0774536l0 22.775528c0 0.16143799 -0.10424805 0.2931366 -0.31274414 0.39511108c-0.20172119 0.10195923 -0.46063232 0.16993713 -0.7767334 0.20391846c-0.30932617 0.025482178 -0.60858154 0.038238525 -0.8977661 0.038238525l-0.121032715 0l0 6.181381l19.156067 0l0 -6.181381l-0.19165039 0c-0.49090576 0 -0.9145508 -0.10621643 -1.2709961 -0.31863403c-0.34973145 -0.2124176 -0.6187134 -0.57777405 -0.80700684 -1.0960846c-0.18157959 -0.5182953 -0.27233887 -1.2490234 -0.27233887 -2.192154l0 -20.124557c0 -2.922882 -0.41363525 -5.3741913 -1.2407837 -7.3539276c-0.82714844 -1.9882507 -2.027588 -3.5049133 -3.6012573 -4.5500183c-1.5668945 -1.0450897 -3.4667358 -1.5676422 -5.699402 -1.5676422z" fill-rule="evenodd"/><path fill="#eeeeee" d="m685.38477 155.0206l0 6.805893l0.3026123 0c0.62542725 0 1.1129761 0.09346008 1.4627075 0.2803955c0.3496704 0.17842102 0.6589966 0.53105164 0.92803955 1.0578461c0.26898193 0.5182953 0.5682373 1.2490234 0.8977661 2.192154l12.754639 35.066086l0 0c-0.48382568 0.97869873 -1.0164795 1.7929688 -1.5979004 2.44281c-0.69940186 0.78170776 -1.5064087 1.3552399 -2.4209595 1.7205963c-0.90789795 0.36535645 -1.9603882 0.54803467 -3.1574097 0.54803467c-1.27771 0 -2.494934 -0.15718079 -3.6516724 -0.47155762c-1.1566772 -0.31437683 -2.128479 -0.62875366 -2.9152832 -0.94314575c-0.7868042 -0.3058777 -1.2642822 -0.48857117 -1.4324341 -0.54803467l0 11.598053c0.5380249 0.41635132 1.4257202 0.81993103 2.663147 1.2107849c1.2440796 0.39085388 2.6294556 0.58628845 4.156006 0.58628845c1.9838867 0 3.7390747 -0.3781128 5.265686 -1.1343231c1.5332642 -0.7562103 2.928711 -1.945755 4.1862793 -3.568634c1.2642822 -1.6143799 2.505066 -3.7130737 3.72229 -6.296097c1.2172241 -2.5830078 2.4882202 -5.7310486 3.8130493 -9.444138l10.844055 -30.29515c0.32946777 -0.99412537 0.638855 -1.7758179 0.92803955 -2.345108c0.28918457 -0.57777405 0.61865234 -0.9983673 0.9885864 -1.2617645c0.3765869 -0.26339722 0.87420654 -0.39509583 1.4929199 -0.39509583l0.3126831 0l0 -6.805893l-12.458008 0l0 6.5000153l0.24212646 0c0.5783081 0 1.1062622 0.080718994 1.5837402 0.24215698c0.47747803 0.15293884 0.83721924 0.34835815 1.0793457 0.5862732c0.2487793 0.2294159 0.37322998 0.501297 0.37322998 0.8156891l-6.456543 18.52594l-6.5562744 -19.469086c0 -0.2124176 0.14459229 -0.3568573 0.43371582 -0.43333435c0.28918457 -0.07646179 0.6691284 -0.14019775 1.1398926 -0.19117737c0.47747803 -0.050979614 1.0054321 -0.07646179 1.5837402 -0.07646179l0.25219727 0l0 -6.5000153z" fill-rule="evenodd"/><path stroke="#595959" stroke-width="1.0" stroke-linejoin="round" stroke-linecap="butt" d="m255.32318 154.00099c-3.221283 0 -6.0726624 0.48431396 -8.554184 1.4529419c-2.4815063 0.9601288 -4.4250336 2.4980469 -5.830551 4.6137238c-1.4055328 2.1156921 -2.1082916 4.923874 -2.1082916 8.42453c0 2.3960876 0.33961487 4.3928223 1.0188446 5.990219c0.6859436 1.5888824 1.6072693 2.8549042 2.7639618 3.7980347c1.1566925 0.9346466 2.427719 1.6908569 3.8130646 2.268631c1.3853607 0.56929016 2.7807922 1.062088 4.18631 1.4784393c0.98857117 0.31437683 1.9266968 0.59051514 2.814392 0.8284302c0.8877106 0.23791504 1.6812439 0.5395355 2.3806458 0.9049072c0.7061157 0.36535645 1.2542114 0.82418823 1.6442566 1.3764801c0.39678955 0.54377747 0.5951538 1.2830048 0.5951538 2.2176514c0 0.9941101 -0.1647644 1.8055573 -0.4942627 2.434311c-0.3295288 0.6202545 -0.8473511 1.062088 -1.553482 1.3255005c-0.69940186 0.26339722 -1.6274567 0.39509583 -2.7841492 0.39509583c-1.116333 0 -2.1284485 -0.07647705 -3.036316 -0.2294159c-0.77656555 -0.13809204 -1.4793243 -0.32279968 -2.1082916 -0.5541382l0 0l0 -6.188034l-9.6032715 0l0 10.4127655c0.5783539 0.36535645 1.5265808 0.8369293 2.8446655 1.4147186c1.3248291 0.5692749 2.9892578 1.062088 4.9933014 1.4784241c2.0040436 0.4248352 4.243454 0.6372528 6.7182617 0.6372528c4.0955048 0 7.49498 -0.5352936 10.198441 -1.6058807c2.710144 -1.0705872 4.714203 -2.752945 6.0121155 -5.0470734c1.304657 -2.3026123 1.9569702 -5.3062134 1.9569702 -9.010803c0 -2.2941132 -0.37322998 -4.222885 -1.11969 -5.7862854c-0.7464905 -1.5718994 -1.7384338 -2.8549042 -2.97583 -3.8490143c-1.2373657 -0.99412537 -2.5891113 -1.7885742 -4.0551453 -2.3833466c-1.4660645 -0.6032715 -2.9220276 -1.1385651 -4.3678894 -1.6058807c-1.116333 -0.3653717 -2.1418762 -0.67974854 -3.0766754 -0.94314575c-0.92803955 -0.26339722 -1.7451324 -0.54803467 -2.4512482 -0.8539276c-0.69940186 -0.31437683 -1.2340393 -0.7179718 -1.6039124 -1.2107849c-0.36987305 -0.501297 -0.5548096 -1.1682892 -0.5548096 -2.0009766c0 -1.206543 0.359787 -2.0434723 1.079361 -2.510788c0.7263031 -0.46733093 1.83255 -0.70098877 3.3187714 -0.70098877c0.9482422 0 1.7922058 0.06373596 2.531952 0.19117737c0.6267395 0.10700989 1.2084656 0.2529602 1.7451477 0.4378357l0 0l0 4.9278717l9.421692 0l0 -9.393158c-0.37661743 -0.26341248 -1.1432495 -0.64151 -2.2999573 -1.1343231c-1.1566772 -0.50131226 -2.686615 -0.9601288 -4.5897827 -1.3764648c-1.8964539 -0.41635132 -4.18631 -0.6245117 -6.869568 -0.6245117z" fill-rule="evenodd"/><path stroke="#595959" stroke-width="1.0" stroke-linejoin="round" stroke-linecap="butt" d="m294.49524 154.2304c-4.1762085 0 -7.743805 0.8369293 -10.70282 2.510788c-2.95224 1.6738586 -5.2253113 4.142166 -6.8191223 7.4049225c-1.5870972 3.2627563 -2.3806458 7.294464 -2.3806458 12.095123c0 4.9026184 0.83724976 9.002304 2.5117798 12.299042c1.67453 3.2882385 3.9778442 5.756546 6.909912 7.4049225c2.9320984 1.6398621 6.321472 2.4598083 10.168182 2.4598083c2.6025696 0 4.8722534 -0.48431396 6.8090515 -1.4529419c1.943512 -0.9686279 3.5877686 -2.3408508 4.93277 -4.116684c1.3450012 -1.7758179 2.4310913 -3.8617706 3.2582397 -6.2578583l-4.710846 -3.6068573c-0.5379944 1.2575073 -1.1701355 2.4598083 -1.8964539 3.6068573c-0.719574 1.1470642 -1.5568237 2.0732117 -2.5117798 2.7784424c-0.94821167 0.7052307 -2.0208435 1.0578461 -3.2178955 1.0578461c-1.3248291 0 -2.4512634 -0.25915527 -3.379303 -0.77745056c-0.92803955 -0.52679443 -1.6913147 -1.3509827 -2.289856 -2.4725494c-0.59851074 -1.121582 -1.0423584 -2.583023 -1.331543 -4.384323c-0.28915405 -1.8013153 -0.43374634 -3.9807281 -0.43374634 -6.538254c0 -3.3392181 0.19500732 -6.066681 0.5850525 -8.182373c0.39004517 -2.1156921 1.0188293 -3.6705933 1.8863525 -4.6647186c0.8742676 -0.9941101 2.0107727 -1.4911652 3.4095764 -1.4911652c0.9145813 0 1.6476135 0.16992188 2.1990662 0.50979614c0.053894043 0.032821655 0.10769653 0.06674194 0.16140747 0.10177612l0 0l0 8.794327l10.470795 0l0 -13.701019c-0.5379944 -0.4248352 -1.4156189 -0.8963928 -2.632843 -1.4147034c-1.2171936 -0.5182953 -2.7471313 -0.97288513 -4.5897827 -1.3637238c-1.8359375 -0.39935303 -3.9710999 -0.59902954 -6.405548 -0.59902954z" fill-rule="evenodd"/><path stroke="#595959" stroke-width="1.0" stroke-linejoin="round" stroke-linecap="butt" d="m321.88254 135.99213c-2.3940735 0 -4.263611 0.6669922 -5.608612 2.0009766c-1.3450317 1.3255005 -2.017517 3.2670135 -2.017517 5.824524c0 2.5575256 0.67248535 4.5032806 2.017517 5.837265c1.3449707 1.3339996 3.214508 2.0009918 5.608612 2.0009918c2.441162 0 4.320801 -0.6669922 5.638916 -2.0009918c1.3247986 -1.3339844 1.9872131 -3.2797394 1.9872131 -5.837265c0 -2.5575104 -0.66241455 -4.4990234 -1.9872131 -5.824524c-1.3181152 -1.3339844 -3.197754 -2.0009766 -5.638916 -2.0009766zm-9.542755 19.028473l0 6.971573l0.4942932 0.1529541c0.7464905 0.20391846 1.2844849 0.4375763 1.6140137 0.7009735c0.3294983 0.26339722 0.4942627 0.7094879 0.4942627 1.3382416l0 23.565735c0 1.4104614 -0.21853638 2.366333 -0.65567017 2.8676453c-0.4303894 0.4928131 -1.0390015 0.7392273 -1.8258362 0.7392273l-0.12106323 0l0 6.181381l19.650421 0l0 -6.181381l-0.13113403 0c-0.7397461 0 -1.3382874 -0.24641418 -1.7955933 -0.7392273c-0.45056152 -0.50131226 -0.6758423 -1.4571838 -0.6758423 -2.8676453l0 -32.729477z" fill-rule="evenodd"/><path stroke="#595959" stroke-width="1.0" stroke-linejoin="round" stroke-linecap="butt" d="m354.1782 161.44414c0.7397461 0 1.3887024 0.18267822 1.9468689 0.54803467c0.5581665 0.3653717 0.99194336 1.0323639 1.3013 2.0009918c0.30932617 0.9601288 0.54470825 2.353592 0.7061157 4.1804047c0.11816406 1.2842102 0.20645142 2.8518677 0.26483154 4.702942l-9.010834 0c0.045928955 -1.504364 0.12332153 -2.8213654 0.23217773 -3.9509888c0.18829346 -1.962738 0.48754883 -3.492157 0.8977661 -4.5882416c0.41696167 -1.0960846 0.9246826 -1.8522949 1.5232239 -2.268631c0.59851074 -0.41633606 1.3113708 -0.6245117 2.1385498 -0.6245117zm-0.31271362 -7.290207c-3.7592773 0 -7.054535 0.92614746 -9.885742 2.7784271c-2.8312073 1.8522949 -5.0235596 4.452301 -6.5770264 7.8000183c-1.5467529 3.3392334 -2.3201294 7.277466 -2.3201294 11.814728c0 4.758194 0.77337646 8.768646 2.3201294 12.031403c1.5534668 3.2627563 3.8265076 5.7310486 6.8191223 7.4049225c2.9993591 1.6653595 6.6073 2.4980316 10.823883 2.4980316c2.7639465 0 5.147949 -0.37809753 7.152008 -1.1343079c2.0040588 -0.7562103 3.7088318 -1.9032745 5.1143494 -3.4411926c1.4055176 -1.546402 2.5622253 -3.4411774 3.4700928 -5.684311l-4.952942 -4.0784454c-0.6187134 1.2575226 -1.3214722 2.3705902 -2.108307 3.3392181c-0.7868042 0.96014404 -1.6980286 1.703598 -2.7337036 2.2303925c-1.0289001 0.51831055 -2.286499 0.7774658 -3.772705 0.7774658c-1.486206 0 -2.7471619 -0.24641418 -3.7828064 -0.7392273c-1.0356445 -0.50131226 -1.8527222 -1.300003 -2.4512634 -2.3960724c-0.59851074 -1.0960846 -1.0221863 -2.5447845 -1.2709961 -4.3461c-0.15750122 -1.1400452 -0.26513672 -2.431549 -0.322937 -3.8745117l22.081604 0c-0.04034424 -4.1719055 -0.42367554 -7.8085175 -1.1499634 -10.909821c-0.719574 -3.1098175 -1.7922058 -5.7098236 -3.217926 -7.8000183c-1.4256897 -2.09021 -3.2347107 -3.6578522 -5.4270325 -4.702957c-2.1923523 -1.0450897 -4.794922 -1.5676422 -7.8077087 -1.5676422z" fill-rule="evenodd"/><path stroke="#595959" stroke-width="1.0" stroke-linejoin="round" stroke-linecap="butt" d="m403.81595 154.15393c-1.9367981 0 -3.7962646 0.5225525 -5.578369 1.5676422c-1.7753906 1.045105 -3.3356018 2.4555664 -4.6805725 4.2313843c-0.8626404 1.1446686 -1.6107178 2.3970184 -2.2442322 3.7570343l0 0l-0.69122314 -8.689392l-15.7465515 0l0 6.971573l0.4942932 0.1529541c0.49761963 0.15293884 0.90112305 0.31011963 1.2104797 0.47155762c0.3093567 0.1529541 0.53463745 0.33563232 0.6758728 0.5480499c0.14794922 0.20391846 0.22192383 0.5437927 0.22192383 1.0196075l0 23.565735c0 0.9431305 -0.10424805 1.6738586 -0.31271362 2.192154c-0.20175171 0.51831055 -0.48083496 0.883667 -0.8372803 1.0960846c-0.34970093 0.2124176 -0.7935486 0.31863403 -1.331543 0.31863403l-0.121032715 0l0 6.181381l19.216614 0l0 -6.181381l-0.25216675 0c-0.24884033 0 -0.51782227 -0.012756348 -0.80700684 -0.038238525c-0.28918457 -0.033981323 -0.5480957 -0.10195923 -0.7767334 -0.20391846c-0.22192383 -0.10197449 -0.33288574 -0.20393372 -0.33288574 -0.30589294l0 -21.102707l0 0c0.24963379 -0.49343872 0.4951172 -0.9490814 0.73638916 -1.3669434c0.7868347 -1.3594818 1.5736389 -2.4045868 2.3604736 -3.1352997c0.7868042 -0.7307129 1.570282 -1.0960846 2.3503723 -1.0960846c0.61868286 0 1.1029053 0.15719604 1.4526062 0.47157288c0.3564148 0.3058777 0.6153259 0.7349701 0.7767334 1.287262c0.16812134 0.5437927 0.25216675 1.2362671 0.25216675 2.0774536l0 22.775528c0 0.16143799 -0.10421753 0.2931366 -0.31271362 0.39511108c-0.20172119 0.10195923 -0.46063232 0.16993713 -0.7767334 0.20391846c-0.30932617 0.025482178 -0.60861206 0.038238525 -0.8977661 0.038238525l-0.12106323 0l0 6.181381l19.156128 0l0 -6.181381l-0.19168091 0c-0.49090576 0 -0.9145813 -0.10621643 -1.2710266 -0.31863403c-0.3496704 -0.2124176 -0.61868286 -0.57777405 -0.8069763 -1.0960846c-0.18157959 -0.5182953 -0.27236938 -1.2490234 -0.27236938 -2.192154l0 -20.124557c0 -2.922882 -0.41357422 -5.3741913 -1.2407532 -7.3539276c-0.82717896 -1.9882507 -2.027588 -3.5049133 -3.6012268 -4.5500183c-1.566925 -1.0450897 -3.4667358 -1.5676422 -5.6994324 -1.5676422z" fill-rule="evenodd"/><path stroke="#595959" stroke-width="1.0" stroke-linejoin="round" stroke-linecap="butt" d="m423.46173 143.11665l0 8.220596c0 1.1980438 -0.18493652 2.0859528 -0.5548096 2.663742c-0.36987305 0.57777405 -0.8776245 0.9601288 -1.5232239 1.147049c-0.6388855 0.17843628 -1.3920593 0.26765442 -2.2595825 0.26765442l-0.3732605 0l0 6.958832l4.2770996 0l0 22.316711c0 3.5006561 0.59854126 6.2578583 1.7955627 8.271591c1.2037964 2.0052338 2.8581238 3.4156952 4.963043 4.2313843c2.1049194 0.80718994 4.5628967 1.2107849 7.373932 1.2107849c1.3651733 0 2.6261292 -0.080718994 3.7828064 -0.24215698c1.1567078 -0.15293884 2.1688232 -0.3483734 3.0363464 -0.5862732c0.8675232 -0.23791504 1.5299377 -0.43333435 1.9872131 -0.58628845l0 -7.9147186c-0.24880981 0 -0.7565613 0.09347534 -1.5231934 0.2803955c-0.7666626 0.17843628 -1.6039124 0.26765442 -2.5117798 0.26765442c-0.9482422 0 -1.7417908 -0.1529541 -2.3806458 -0.4588318c-0.6388855 -0.31437683 -1.1365356 -0.90065 -1.4929504 -1.7588196c-0.34970093 -0.8666687 -0.52453613 -2.1072083 -0.52453613 -3.7215881l0 -21.309845l8.735748 0l0 -7.3539276l-8.735748 0l0 -11.903946z" fill-rule="evenodd"/><path stroke="#595959" stroke-width="1.0" stroke-linejoin="round" stroke-linecap="butt" d="m458.8526 135.99213c-2.394104 0 -4.2636414 0.6669922 -5.6086426 2.0009766c-1.3450012 1.3255005 -2.0174866 3.2670135 -2.0174866 5.824524c0 2.5575256 0.67248535 4.5032806 2.0174866 5.837265c1.3450012 1.3339996 3.2145386 2.0009918 5.6086426 2.0009918c2.441162 0 4.320801 -0.6669922 5.6388855 -2.0009918c1.3248291 -1.3339844 1.9872437 -3.2797394 1.9872437 -5.837265c0 -2.5575104 -0.66241455 -4.4990234 -1.9872437 -5.824524c-1.3180847 -1.3339844 -3.1977234 -2.0009766 -5.6388855 -2.0009766zm-9.542755 19.028473l0 6.971573l0.4942932 0.1529541c0.74645996 0.20391846 1.2844543 0.4375763 1.6139832 0.7009735c0.3295288 0.26339722 0.4942932 0.7094879 0.4942932 1.3382416l0 23.565735c0 1.4104614 -0.2185669 2.366333 -0.6557007 2.8676453c-0.4303894 0.4928131 -1.0390015 0.7392273 -1.8258362 0.7392273l-0.121032715 0l0 6.181381l19.65039 0l0 -6.181381l-0.13113403 0c-0.7397461 0 -1.3382874 -0.24641418 -1.7955627 -0.7392273c-0.45059204 -0.50131226 -0.6758728 -1.4571838 -0.6758728 -2.8676453l0 -32.729477z" fill-rule="evenodd"/><path stroke="#595959" stroke-width="1.0" stroke-linejoin="round" stroke-linecap="butt" d="m489.03995 154.00099c-3.221283 0 -6.0726624 0.48431396 -8.554169 1.4529419c-2.4815369 0.9601288 -4.425049 2.4980469 -5.8305664 4.6137238c-1.4055176 2.1156921 -2.1082764 4.923874 -2.1082764 8.42453c0 2.3960876 0.3395996 4.3928223 1.0188293 5.990219c0.6859436 1.5888824 1.6072693 2.8549042 2.7639465 3.7980347c1.1567078 0.9346466 2.4277344 1.6908569 3.8130798 2.268631c1.3853455 0.56929016 2.7807922 1.062088 4.18631 1.4784393c0.9885559 0.31437683 1.9266968 0.59051514 2.814392 0.8284302c0.8876953 0.23791504 1.6812439 0.5395355 2.3806458 0.9049072c0.7061157 0.36535645 1.2542114 0.82418823 1.6442566 1.3764801c0.39678955 0.54377747 0.5951538 1.2830048 0.5951538 2.2176514c0 0.9941101 -0.1647644 1.8055573 -0.4942627 2.434311c-0.3295288 0.6202545 -0.8473511 1.062088 -1.5534973 1.3255005c-0.69937134 0.26339722 -1.6274414 0.39509583 -2.7841187 0.39509583c-1.1163635 0 -2.128479 -0.07647705 -3.0363464 -0.2294159c-0.7765503 -0.13809204 -1.4793091 -0.32279968 -2.1082764 -0.5541382l0 0l0 -6.188034l-9.6032715 0l0 10.4127655c0.5783386 0.36535645 1.5265808 0.8369293 2.8446655 1.4147186c1.3248291 0.5692749 2.9892578 1.062088 4.993286 1.4784241c2.0040588 0.4248352 4.243469 0.6372528 6.7182617 0.6372528c4.09552 0 7.494995 -0.5352936 10.198456 -1.6058807c2.710144 -1.0705872 4.714203 -2.752945 6.0121155 -5.0470734c1.304657 -2.3026123 1.9569702 -5.3062134 1.9569702 -9.010803c0 -2.2941132 -0.37322998 -4.222885 -1.1197205 -5.7862854c-0.74645996 -1.5718994 -1.7384033 -2.8549042 -2.9757996 -3.8490143c-1.2373962 -0.99412537 -2.5891113 -1.7885742 -4.0551453 -2.3833466c-1.4660645 -0.6032715 -2.9220276 -1.1385651 -4.3678894 -1.6058807c-1.116333 -0.3653717 -2.1419067 -0.67974854 -3.0766602 -0.94314575c-0.92807007 -0.26339722 -1.7451477 -0.54803467 -2.4512634 -0.8539276c-0.69940186 -0.31437683 -1.2340393 -0.7179718 -1.6039124 -1.2107849c-0.36987305 -0.501297 -0.5548096 -1.1682892 -0.5548096 -2.0009766c0 -1.206543 0.35977173 -2.0434723 1.0793457 -2.510788c0.72631836 -0.46733093 1.8325806 -0.70098877 3.3187866 -0.70098877c0.94821167 0 1.7922058 0.06373596 2.531952 0.19117737c0.6267395 0.10700989 1.2084656 0.2529602 1.7451477 0.4378357l0 0l0 4.9278717l9.421692 0l0 -9.393158c-0.3765869 -0.26341248 -1.1432495 -0.64151 -2.2999573 -1.1343231c-1.1566772 -0.50131226 -2.686615 -0.9601288 -4.5897827 -1.3764648c-1.8964539 -0.41635132 -4.18631 -0.6245117 -6.869568 -0.6245117z" fill-rule="evenodd"/><path stroke="#595959" stroke-width="1.0" stroke-linejoin="round" stroke-linecap="butt" d="m511.46964 143.11665l0 8.220596c0 1.1980438 -0.18493652 2.0859528 -0.5548096 2.663742c-0.36987305 0.57777405 -0.8776245 0.9601288 -1.5232239 1.147049c-0.638855 0.17843628 -1.3920593 0.26765442 -2.2595825 0.26765442l-0.37322998 0l0 6.958832l4.277069 0l0 22.316711c0 3.5006561 0.59854126 6.2578583 1.7955627 8.271591c1.2037964 2.0052338 2.8581543 3.4156952 4.9630737 4.2313843c2.1049194 0.80718994 4.562866 1.2107849 7.3739014 1.2107849c1.3651733 0 2.6261597 -0.080718994 3.782837 -0.24215698c1.1566772 -0.15293884 2.1688232 -0.3483734 3.036316 -0.5862732c0.8675537 -0.23791504 1.5299072 -0.43333435 1.9872437 -0.58628845l0 -7.9147186c-0.24884033 0 -0.7565918 0.09347534 -1.5231934 0.2803955c-0.7666626 0.17843628 -1.6039429 0.26765442 -2.5117798 0.26765442c-0.9482422 0 -1.7418213 -0.1529541 -2.3806763 -0.4588318c-0.638855 -0.31437683 -1.1365356 -0.90065 -1.4929199 -1.7588196c-0.34973145 -0.8666687 -0.52453613 -2.1072083 -0.52453613 -3.7215881l0 -21.309845l8.735718 0l0 -7.3539276l-8.735718 0l0 -11.903946z" fill-rule="evenodd"/><path stroke="#595959" stroke-width="1.0" stroke-linejoin="round" stroke-linecap="butt" d="m555.0459 154.00099c-3.2212524 0 -6.072632 0.48431396 -8.554199 1.4529419c-2.4815063 0.9601288 -4.424988 2.4980469 -5.8305664 4.6137238c-1.4055176 2.1156921 -2.1082764 4.923874 -2.1082764 8.42453c0 2.3960876 0.33966064 4.3928223 1.0188599 5.990219c0.6859741 1.5888824 1.6072998 2.8549042 2.763977 3.7980347c1.1566772 0.9346466 2.4277344 1.6908569 3.8130493 2.268631c1.385376 0.56929016 2.7807617 1.062088 4.1862793 1.4784393c0.9885864 0.31437683 1.9267578 0.59051514 2.8144531 0.8284302c0.8876953 0.23791504 1.6812134 0.5395355 2.3806152 0.9049072c0.7061157 0.36535645 1.2542114 0.82418823 1.6442871 1.3764801c0.39672852 0.54377747 0.5951538 1.2830048 0.5951538 2.2176514c0 0.9941101 -0.16479492 1.8055573 -0.49432373 2.434311c-0.3295288 0.6202545 -0.8473511 1.062088 -1.5534668 1.3255005c-0.69940186 0.26339722 -1.6274414 0.39509583 -2.7841187 0.39509583c-1.116333 0 -2.128479 -0.07647705 -3.036316 -0.2294159c-0.7766113 -0.13809204 -1.4793701 -0.32279968 -2.1082764 -0.5541382l0 0l0 -6.188034l-9.6032715 0l0 10.4127655c0.5783081 0.36535645 1.5265503 0.8369293 2.8446655 1.4147186c1.3247681 0.5692749 2.9892578 1.062088 4.993286 1.4784241c2.0040283 0.4248352 4.243469 0.6372528 6.7182617 0.6372528c4.09552 0 7.494995 -0.5352936 10.198425 -1.6058807c2.710144 -1.0705872 4.7142334 -2.752945 6.012146 -5.0470734c1.3046265 -2.3026123 1.9569702 -5.3062134 1.9569702 -9.010803c0 -2.2941132 -0.37322998 -4.222885 -1.119751 -5.7862854c-0.74645996 -1.5718994 -1.7384033 -2.8549042 -2.975769 -3.8490143c-1.2374268 -0.99412537 -2.5891113 -1.7885742 -4.055176 -2.3833466c-1.4660645 -0.6032715 -2.921997 -1.1385651 -4.367859 -1.6058807c-1.116394 -0.3653717 -2.1419067 -0.67974854 -3.0767212 -0.94314575c-0.92803955 -0.26339722 -1.7451172 -0.54803467 -2.451233 -0.8539276c-0.69940186 -0.31437683 -1.2340088 -0.7179718 -1.6038818 -1.2107849c-0.36987305 -0.501297 -0.5548096 -1.1682892 -0.5548096 -2.0009766c0 -1.206543 0.3597412 -2.0434723 1.0793457 -2.510788c0.7262573 -0.46733093 1.8325195 -0.70098877 3.3187866 -0.70098877c0.94818115 0 1.7921753 0.06373596 2.5319214 0.19117737c0.62677 0.10700989 1.2084961 0.2529602 1.7451172 0.4378357l0 0l0 4.9278717l9.421753 0l0 -9.393158c-0.37664795 -0.26341248 -1.1432495 -0.64151 -2.2999878 -1.1343231c-1.1566772 -0.50131226 -2.6865845 -0.9601288 -4.5897827 -1.3764648c-1.8964233 -0.41635132 -4.1862793 -0.6245117 -6.869568 -0.6245117z" fill-rule="evenodd"/><path stroke="#595959" stroke-width="1.0" stroke-linejoin="round" stroke-linecap="butt" d="m574.19434 138.18428l0 6.729431l0.4942627 0.16567993c0.45733643 0.1529541 0.850708 0.3101349 1.1802368 0.47157288c0.3295288 0.15293884 0.5648804 0.3483734 0.7061157 0.5862732c0.14794922 0.2294159 0.22192383 0.55229187 0.22192383 0.9686432l0 40.644196c0 0.9431305 -0.10418701 1.6738586 -0.3126831 2.192154c-0.20178223 0.51831055 -0.48083496 0.883667 -0.8372803 1.0960846c-0.3496704 0.2124176 -0.79351807 0.31863403 -1.331543 0.31863403l-0.121032715 0l0 6.181381l19.216614 0l0 -6.181381l-0.25219727 0c-0.2487793 0 -0.51782227 -0.012756348 -0.80700684 -0.038238525c-0.28912354 -0.033981323 -0.54803467 -0.10195923 -0.7767334 -0.20391846c-0.22192383 -0.10197449 -0.33288574 -0.20393372 -0.33288574 -0.30589294l0 -21.12703l0 0c0.24969482 -0.5007019 0.4951172 -0.9652405 0.73638916 -1.3936005c0.78686523 -1.384964 1.5736694 -2.425827 2.3604736 -3.1225586c0.78686523 -0.7052307 1.5703125 -1.0578461 2.3504028 -1.0578461c0.6187134 0 1.1029053 0.15719604 1.4525757 0.47157288c0.3564453 0.3058777 0.61535645 0.7349701 0.7767334 1.287262c0.16815186 0.5437927 0.25219727 1.2362671 0.25219727 2.0774536l0 22.775528c0 0.16143799 -0.10424805 0.2931366 -0.3126831 0.39511108c-0.20178223 0.10195923 -0.46069336 0.16993713 -0.7767334 0.20391846c-0.3093872 0.025482178 -0.6086426 0.038238525 -0.89782715 0.038238525l-0.121032715 0l0 6.181381l19.156128 0l0 -6.181381l-0.19165039 0c-0.4909668 0 -0.9146118 -0.10621643 -1.2710571 -0.31863403c-0.3496704 -0.2124176 -0.6187134 -0.57777405 -0.80700684 -1.0960846c-0.18157959 -0.5182953 -0.27233887 -1.2490234 -0.27233887 -2.192154l0 -20.124557c0 -2.922882 -0.41357422 -5.3741913 -1.2407837 -7.3539276c-0.82714844 -1.9882507 -2.027588 -3.5049133 -3.6011963 -4.5500183c-1.5669556 -1.0450897 -3.4667358 -1.5676422 -5.699463 -1.5676422c-1.9367676 0 -3.7962036 0.5225525 -5.578369 1.5676422c-1.7753906 1.045105 -3.3355713 2.4555664 -4.680542 4.2313843c-0.6002197 0.796402 -1.1448975 1.6449432 -1.6342163 2.5455933l0 0l0 -24.31427z" fill-rule="evenodd"/><path stroke="#595959" stroke-width="1.0" stroke-linejoin="round" stroke-linecap="butt" d="m628.6087 135.99213c-2.394104 0 -4.263611 0.6669922 -5.6086426 2.0009766c-1.3449707 1.3255005 -2.017456 3.2670135 -2.017456 5.824524c0 2.5575256 0.67248535 4.5032806 2.017456 5.837265c1.3450317 1.3339996 3.2145386 2.0009918 5.6086426 2.0009918c2.441162 0 4.320801 -0.6669922 5.638916 -2.0009918c1.3248291 -1.3339844 1.9872437 -3.2797394 1.9872437 -5.837265c0 -2.5575104 -0.66241455 -4.4990234 -1.9872437 -5.824524c-1.3181152 -1.3339844 -3.197754 -2.0009766 -5.638916 -2.0009766zm-9.542725 19.028473l0 6.971573l0.4942627 0.1529541c0.74645996 0.20391846 1.2844849 0.4375763 1.6140137 0.7009735c0.3295288 0.26339722 0.4942627 0.7094879 0.4942627 1.3382416l0 23.565735c0 1.4104614 -0.2185669 2.366333 -0.6557007 2.8676453c-0.4303589 0.4928131 -1.0390015 0.7392273 -1.8258057 0.7392273l-0.121032715 0l0 6.181381l19.65039 0l0 -6.181381l-0.13116455 0c-0.7397461 0 -1.3382568 -0.24641418 -1.7955322 -0.7392273c-0.45062256 -0.50131226 -0.6759033 -1.4571838 -0.6759033 -2.8676453l0 -32.729477z" fill-rule="evenodd"/><path stroke="#595959" stroke-width="1.0" stroke-linejoin="round" stroke-linecap="butt" d="m670.62866 154.15393c-1.9367676 0 -3.7962646 0.5225525 -5.578369 1.5676422c-1.7753906 1.045105 -3.3355713 2.4555664 -4.680603 4.2313843c-0.86260986 1.1446686 -1.6106567 2.3970184 -2.2442017 3.7570343l0 0l-0.69122314 -8.689392l-15.746582 0l0 6.971573l0.49432373 0.1529541c0.49761963 0.15293884 0.90112305 0.31011963 1.2105103 0.47155762c0.30932617 0.1529541 0.53460693 0.33563232 0.6758423 0.5480499c0.14794922 0.20391846 0.22192383 0.5437927 0.22192383 1.0196075l0 23.565735c0 0.9431305 -0.10424805 1.6738586 -0.31274414 2.192154c-0.20172119 0.51831055 -0.48083496 0.883667 -0.83721924 1.0960846c-0.34973145 0.2124176 -0.7935791 0.31863403 -1.331543 0.31863403l-0.12109375 0l0 6.181381l19.216675 0l0 -6.181381l-0.25219727 0c-0.24884033 0 -0.51782227 -0.012756348 -0.80700684 -0.038238525c-0.28918457 -0.033981323 -0.5480957 -0.10195923 -0.7767334 -0.20391846c-0.22192383 -0.10197449 -0.33288574 -0.20393372 -0.33288574 -0.30589294l0 -21.102707l0 0c0.24963379 -0.49343872 0.4951172 -0.9490814 0.73638916 -1.3669434c0.7868042 -1.3594818 1.5736694 -2.4045868 2.3604736 -3.1352997c0.7868042 -0.7307129 1.5702515 -1.0960846 2.3504028 -1.0960846c0.61865234 0 1.1029053 0.15719604 1.4525757 0.47157288c0.3564453 0.3058777 0.61535645 0.7349701 0.7767334 1.287262c0.16809082 0.5437927 0.25219727 1.2362671 0.25219727 2.0774536l0 22.775528c0 0.16143799 -0.10424805 0.2931366 -0.31274414 0.39511108c-0.20172119 0.10195923 -0.46063232 0.16993713 -0.7767334 0.20391846c-0.30932617 0.025482178 -0.60858154 0.038238525 -0.8977661 0.038238525l-0.121032715 0l0 6.181381l19.156067 0l0 -6.181381l-0.19165039 0c-0.49090576 0 -0.9145508 -0.10621643 -1.2709961 -0.31863403c-0.34973145 -0.2124176 -0.6187134 -0.57777405 -0.80700684 -1.0960846c-0.18157959 -0.5182953 -0.27233887 -1.2490234 -0.27233887 -2.192154l0 -20.124557c0 -2.922882 -0.41363525 -5.3741913 -1.2407837 -7.3539276c-0.82714844 -1.9882507 -2.027588 -3.5049133 -3.6012573 -4.5500183c-1.5668945 -1.0450897 -3.4667358 -1.5676422 -5.699402 -1.5676422z" fill-rule="evenodd"/><path stroke="#595959" stroke-width="1.0" stroke-linejoin="round" stroke-linecap="butt" d="m685.38477 155.0206l0 6.805893l0.3026123 0c0.62542725 0 1.1129761 0.09346008 1.4627075 0.2803955c0.3496704 0.17842102 0.6589966 0.53105164 0.92803955 1.0578461c0.26898193 0.5182953 0.5682373 1.2490234 0.8977661 2.192154l12.754639 35.066086l0 0c-0.48382568 0.97869873 -1.0164795 1.7929688 -1.5979004 2.44281c-0.69940186 0.78170776 -1.5064087 1.3552399 -2.4209595 1.7205963c-0.90789795 0.36535645 -1.9603882 0.54803467 -3.1574097 0.54803467c-1.27771 0 -2.494934 -0.15718079 -3.6516724 -0.47155762c-1.1566772 -0.31437683 -2.128479 -0.62875366 -2.9152832 -0.94314575c-0.7868042 -0.3058777 -1.2642822 -0.48857117 -1.4324341 -0.54803467l0 11.598053c0.5380249 0.41635132 1.4257202 0.81993103 2.663147 1.2107849c1.2440796 0.39085388 2.6294556 0.58628845 4.156006 0.58628845c1.9838867 0 3.7390747 -0.3781128 5.265686 -1.1343231c1.5332642 -0.7562103 2.928711 -1.945755 4.1862793 -3.568634c1.2642822 -1.6143799 2.505066 -3.7130737 3.72229 -6.296097c1.2172241 -2.5830078 2.4882202 -5.7310486 3.8130493 -9.444138l10.844055 -30.29515c0.32946777 -0.99412537 0.638855 -1.7758179 0.92803955 -2.345108c0.28918457 -0.57777405 0.61865234 -0.9983673 0.9885864 -1.2617645c0.3765869 -0.26339722 0.87420654 -0.39509583 1.4929199 -0.39509583l0.3126831 0l0 -6.805893l-12.458008 0l0 6.5000153l0.24212646 0c0.5783081 0 1.1062622 0.080718994 1.5837402 0.24215698c0.47747803 0.15293884 0.83721924 0.34835815 1.0793457 0.5862732c0.2487793 0.2294159 0.37322998 0.501297 0.37322998 0.8156891l-6.456543 18.52594l-6.5562744 -19.469086c0 -0.2124176 0.14459229 -0.3568573 0.43371582 -0.43333435c0.28918457 -0.07646179 0.6691284 -0.14019775 1.1398926 -0.19117737c0.47747803 -0.050979614 1.0054321 -0.07646179 1.5837402 -0.07646179l0.25219727 0l0 -6.5000153z" fill-rule="evenodd"/></g></g></g></svg>